<?xml version="1.0" encoding="UTF-8"?>
<svg width="600px" height="600px" viewBox="0 0 600 600" version="1.1" xmlns="http://www.w3.org/2000/svg" xmlns:xlink="http://www.w3.org/1999/xlink">
    <title>Artboard</title>
    <g id="Artboard" stroke="none" stroke-width="1" fill="none" fill-rule="evenodd">
        <rect fill="#FEFEFE" x="0" y="0" width="600" height="600"></rect>
        <g id="Group" transform="translate(77.2095, 29.6696)" fill-rule="nonzero">
            <g id="o" transform="translate(183.2472, 199.3078)" fill="#000000" stroke="#000000" stroke-width="27">
                <path d="M171.879763,0.576836776 C243.807972,6.83146364 272.735622,65.6640476 258.662711,177.074589 C252.798999,221.638805 239.703374,257.407452 219.375836,284.380531 C188.102702,325.817434 149.206741,344.385857 102.687954,340.085801 C23.7232897,333.049346 -9.69987264,282.230503 2.41846691,187.629271 C5.93669452,160.656193 11.1163074,137.005885 17.9573055,116.678348 C24.7983036,96.3508106 35.0598008,77.3914729 48.7417971,59.8003349 C81.9695023,16.0179468 123.015491,-3.72321919 171.879763,0.576836776 Z M137.87023,45.1410532 C108.160752,42.4046539 88.0286721,48.0729095 77.4739893,62.14582 C71.6102766,69.5731894 65.7465639,81.7892574 59.8828512,98.7940242 C54.0191385,115.798791 49.7190826,135.637686 46.9826833,158.310708 C36.0370863,243.529999 65.942021,289.266958 136.697487,295.521585 C163.670566,297.86707 181.457161,293.371557 190.057273,282.035046 C194.357329,276.171333 198.852842,266.496207 203.543812,253.009668 C208.234782,239.523129 211.75301,223.98429 214.098495,206.393152 C227.389577,104.364551 201.980155,50.6138517 137.87023,45.1410532 Z" id="Shape"></path>
            </g>
            <g id="X" transform="translate(-0, 0)" fill="#058FED" stroke="#058FED" stroke-width="33">
                <path d="M37.5091462,24.5596082 C40.1152407,19.3474191 43.8615016,14.4609919 48.7479289,9.90032649 C53.6343561,5.33966107 58.276462,2.32636427 62.6742465,0.8604361 C67.072031,-0.605492071 70.0853278,-0.198289801 71.7141369,2.08204291 L165.53354,162.845499 L277.432724,17.2299673 C281.341865,12.0177783 285.82109,7.78287469 290.870398,4.52525653 C295.919707,1.26763837 299.828848,-0.198289801 302.597824,0.127472015 C305.366799,0.453233831 306.914168,1.43051928 307.23993,3.05932836 C308.542977,6.96847015 306.425525,12.506421 300.887574,19.673181 L176.28368,181.902565 L276.944081,353.904804 C278.247128,356.185137 277.595604,359.849957 274.98951,364.899265 C272.383415,369.948573 268.637155,374.75356 263.750727,379.314226 C258.8643,383.874891 254.222194,386.888188 249.82441,388.354116 C245.426625,389.820044 242.413328,389.412842 240.784519,387.132509 L145.010545,222.459911 L30.1795054,371.495942 C26.2703636,376.708131 21.7911386,381.024475 16.7418305,384.444974 C11.6925223,387.865473 7.78338053,389.412842 5.01440509,389.08708 C2.24542966,388.761318 0.698061034,387.784033 0.372299218,386.155224 C-0.930748045,382.246082 1.18670376,376.708131 6.72465463,369.541371 L133.771763,203.402845 L35.5545753,35.3097481 C34.2515281,33.0294154 34.9030517,29.4460354 37.5091462,24.5596082 Z" id="Path"></path>
            </g>
        </g>
    </g>
</svg>